# Made in Blockbench 4.8.3
mtllib RockTest.mtl

o cuboid
v 0.375 0.5 0.375
v 0.5 0.3125 -0.4375
v 0.5 0 0.5
v 0.5 0 -0.5
v -0.375 0.625 0.3125
v -0.3125 0.6875 -0.375
v -0.5 0 0.625
v -0.5625 0 -0.6875
v -0.03125 0.625 0.40625
v 0.03125 0.53125 -0.4375
v 0 0 -0.5
v 0 0 0.5
v 8.50326216002284e-8 0.4843749574836892 0.015623767026986812
v -0.4687499149673784 0.625 0.031248724510676007
v -0.5 0 -0.0000013605219456036544
v 0 0 -0.0000013605219456036544
v 0.5 0 -0.0000013605219456036544
v 0.4687500850326216 0.4687499149673784 -0.0000011904567023823809
vt 0.23456789200136782 0.4198988900142707
vt 0.12507000207342467 0.4593943338001515
vt 0.12507000207342467 0.341946875
vt 0.24992999792657533 0.34194694072919196
vt 0.28125 0.82580625
vt 0.4538328125 0.82580625
vt 0.4623203125 0.9822171875
vt 0.3647125 1
vt 0.42452304850030154 0.5160658682022925
vt 0.38825869100830857 0.6243058626482716
vt 0.28120677316223847 0.5763157788008215
vt 0.3122474643732031 0.4759117263749355
vt 0.265625 0.71875
vt 0.265625 0.84375
vt 0.140625 0.84375
vt 0.140625 0.71875
vt 0.6994312500000001 0.49428960935603006
vt 0.5976828125 0.52591304685603
vt 0.6025281250000001 0.36779742185603004
vt 0.7265625 0.3654208593560301
vt 0.0033986616328973984 0.49748603477663467
vt 0.1283986616328974 0.49748603477663467
vt 0.1205861616328974 0.6312141597766346
vt 0.0033986616328973984 0.5769016597766347
vt 0.5137088518377615 0.5744917200026503
vt 0.4957149824147896 0.6829402909504984
vt 0.3882598981622385 0.6243064038008216
vt 0.43552183553786417 0.5215583697724575
vt 0.2072009561822696 0.671875
vt 0.1205861616328974 0.6312141597766346
vt 0.1283986490084621 0.4974862508716189
vt 0.26222633836710263 0.4916112015957721
vt 0.140625 0.71875
vt 0.140625 0.84375
vt 0.015625 0.84375
vt 0 0.671875
vt 0.473703664658198 0.3653941709517121
vt 0.6025281250000001 0.36779742185603004
vt 0.5976827759217187 0.5259142405040788
vt 0.5198837816890842 0.53125
vt 0.35756364792701123 0.7237618658182975
vt 0.3882598981622385 0.6243064038008216
vt 0.4957130872557449 0.6829392568389686
vt 0.4446424179487866 0.734375
vt 0.5364345557107525 0.9828778206868657
vt 0.4623203125 0.9822171875
vt 0.45383286391311506 0.8258071974607984
vt 0.602072138656898 0.825567560488184
vt 0.015625 1
vt 0.015625 0.84375
vt 0.140625 0.84375
vt 0.140625 0.96875
vt 0.140625 0.96875
vt 0.140625 0.84375
vt 0.265625 0.84375
vt 0.265625 0.96875
vt 0.00007000207342466869 0.341946875
vt 0.12507000207342467 0.341946875
vt 0.12507000207342467 0.4593953125
vt 0.03132000207342467 0.46875
vt 0.2675411481622385 0.6722985913008216
vt 0.28120677316223847 0.5763157788008215
vt 0.3882598981622385 0.6243064038008216
vt 0.3586489606622385 0.7202454663008215
vn 0.99666080279827 0.06644386755702572 0.047460052987460956
vn -0.9948743683833912 0.04522167629997817 0.09044330338045241
vn 0.03663648853935277 0.9937622227943256 0.10533001592322817
vn 0 -1 0
vn 0.12257028260717912 0.15321285325897388 0.9805622608574329
vn 0 0.11684124756739722 -0.9931506043228764
vn 0.2857647637174881 0.9245327792654187 0.2521460685421235
vn -0.12309149097933275 0.12309149097933275 -0.984731927834662
vn 0 -1 0
vn 0.23957680199099268 0.15572492129414525 0.9583072079639707
vn 0.263952401958833 0.9140568994821322 -0.3079433616905453
vn -0.9482098222114227 0.03160716608159438 0.3160682206645786
vn 0 -1 0
vn 0 -1 0
vn 0.9977851690690576 0.06651884233683386 0
vn 0.030710185937129895 0.9966819209960616 -0.07537926000769263
usemtl m_d7e69258-b47b-5ea4-f195-c8a66a0cc99e
f 2/1/1 18/2/1 17/3/1 4/4/1
f 8/5/2 15/6/2 14/7/2 6/8/2
f 10/9/3 13/10/3 18/11/3 2/12/3
f 4/13/4 17/14/4 16/15/4 11/16/4
f 1/17/5 9/18/5 12/19/5 3/20/5
f 4/21/6 11/22/6 10/23/6 2/24/6
f 6/25/7 14/26/7 13/27/7 10/28/7
f 6/29/8 10/30/8 11/31/8 8/32/8
f 11/33/9 16/34/9 15/35/9 8/36/9
f 7/37/10 12/38/10 9/39/10 5/40/10
f 9/41/11 13/42/11 14/43/11 5/44/11
f 5/45/12 14/46/12 15/47/12 7/48/12
f 7/49/13 15/50/13 16/51/13 12/52/13
f 12/53/14 16/54/14 17/55/14 3/56/14
f 3/57/15 17/58/15 18/59/15 1/60/15
f 1/61/16 18/62/16 13/63/16 9/64/16